<svg xmlns="http://www.w3.org/2000/svg" viewBox="0 0 141.75 141.75">
  <title>letswatch.one</title>
  <path d="M1704.07,734.5h-5.94V693.13h5.94Z" transform="translate(-1698.12 -693.13)" fill="#ff931e"/>
  <path d="M1725.83,731.2c0,2.2-1.13,3.3-3.41,3.3H1712q-3.4,0-3.41-3.3V711.1q0-3.3,3.41-3.3h10.44c2.28,0,3.41,1.1,3.41,3.3v9.81l-1.66,1.67h-9.81v7.48H1720v-4.44h5.79ZM1720,718.64v-6.4h-5.68v6.4Z" transform="translate(-1698.12 -693.13)" fill="#ff931e"/>
  <path d="M1741.75,734.5H1735q-3.36,0-3.36-3.3V713h-2.86V707.8h2.86v-7.25h6v7.25h3.88V713h-3.88v16.39h4Z" transform="translate(-1698.12 -693.13)" fill="#ff931e"/>
  <path d="M1761.9,731.2q0,3.3-3.36,3.3h-10.18q-3.36,0-3.36-3.3v-5.74h5.79V730h5.32v-4.23l-9.28-5.48a3.27,3.27,0,0,1-1.83-2.91V711.1q0-3.3,3.41-3.3h10.08q3.36,0,3.36,3.3v5.37h-5.74v-4.12h-5.32v3.86l9.26,5.42a3.27,3.27,0,0,1,1.85,3Z" transform="translate(-1698.12 -693.13)" fill="#ff931e"/>
  <path d="M1735,749.25l-7.63,35.58h-7l-3.83-19.66-3.84,19.66h-7l-7.63-35.58h7.7l3.87,22.67,3.83-22.67h6.12l3.83,22.67,3.87-22.67Z" transform="translate(-1698.12 -693.13)" fill="#ff931e"/>
  <path d="M1761.9,784.76h-7.7v-1.23l-5.49.84a41,41,0,0,1-5.44.53q-4.39,0-4.4-4.33V767.78q0-4.39,4.54-4.4h10.86v-8.16h-7.7v5.07h-7.28v-6.65q0-4.39,4.54-4.39h13.6q4.47,0,4.47,4.39Zm-7.63-6.4v-9.53h-7.7v9.81Z" transform="translate(-1698.12 -693.13)" fill="#ff931e"/>
  <path d="M1783,784.76h-8.93q-4.45,0-4.46-4.4V756.1h-3.8v-6.85h3.8v-9.63h8v9.63h5.17v6.85h-5.17v21.8H1783Z" transform="translate(-1698.12 -693.13)" fill="#ff931e"/>
  <path d="M1810.41,780.36c0,2.93-1.48,4.4-4.46,4.4h-14q-4.53,0-4.53-4.4V753.64q0-4.39,4.53-4.39h14c3,0,4.46,1.46,4.46,4.39v8.44h-7.84V756h-7.2v22.12h7.2v-6.79h7.84Z" transform="translate(-1698.12 -693.13)" fill="#ff931e"/>
  <path d="M1839.87,784.76h-8.08V756l-7.56.14v28.66h-8v-55h8v20.81c1.88-.28,3.75-.58,5.63-.88a38.58,38.58,0,0,1,5.62-.56q4.39,0,4.39,4.32Z" transform="translate(-1698.12 -693.13)" fill="#ff931e"/>
  <path d="M1752.69,834.88h-7.91v-8.51h7.91Z" transform="translate(-1698.12 -693.13)" fill="#ff931e"/>
  <path d="M1781.66,830.48q0,4.39-4.47,4.4h-14.41q-4.54,0-4.54-4.4V803.76q0-4.39,4.54-4.39h14.41q4.47,0,4.47,4.39Zm-7.88-2.28V806.08h-7.63V828.2Z" transform="translate(-1698.12 -693.13)" fill="#ff931e"/>
  <path d="M1811.15,834.88h-8.08v-28.8l-7.56.14v28.66h-8V799.37h8v1.3c1.87-.31,3.74-.6,5.59-.88a35.75,35.75,0,0,1,5.66-.56q4.4,0,4.39,4.32Z" transform="translate(-1698.12 -693.13)" fill="#ff931e"/>
  <path d="M1839.88,830.48c0,2.93-1.52,4.4-4.54,4.4h-13.89q-4.53,0-4.53-4.4V803.76q0-4.39,4.53-4.39h13.89c3,0,4.54,1.46,4.54,4.39v13l-2.22,2.21h-13v10h7.56v-5.91h7.7Zm-7.7-16.7v-8.51h-7.56v8.51Z" transform="translate(-1698.12 -693.13)" fill="#ff931e"/>
</svg>
